<svg xmlns="http://www.w3.org/2000/svg" viewBox="0 0 92.85 48.92"><defs><style>.cls-1{fill:#8892b0;}</style></defs><title>cisco</title><g id="Layer_2" data-name="Layer 2"><g id="Main"><path class="cls-1" d="M17.12,48.9c-5.37,0-9.12-3.83-8.76-9A8.59,8.59,0,0,1,18.5,32.3a2.75,2.75,0,0,1,2.2,4,.7.7,0,0,1-1,.43,8,8,0,0,0-1.52-.29c-3.15-.25-5.38,1.45-5.43,4.12-.07,2.89,2.11,4.49,5.53,4.31.8-.05,2.43-1.63,2.51.95.07,2-.41,3.2-2.63,3.12C17.82,48.89,17.47,48.9,17.12,48.9Z"/><path class="cls-1" d="M39.65,48.91c-1.8-.1-4.09.58-3.75-2.65.11-1.06.37-1.24,1.41-1.09a22.81,22.81,0,0,0,3.88.07A1.43,1.43,0,0,0,42.65,44c.1-.68-.44-1.1-1-1.35-1-.4-1.94-.71-2.88-1.14A4.37,4.37,0,0,1,35.91,37a4.47,4.47,0,0,1,3.16-4.28,9.62,9.62,0,0,1,5.37-.25c1.42.25,1.45,1.13,1.44,2.26,0,1.41-1,1.09-1.79,1.15-1.36.09-3.44-.84-3.75,1.08-.27,1.67,1.91,1.56,3.08,2.08,2,.91,3.53,2.22,3.49,4.65s-1.46,3.92-3.68,4.8A10,10,0,0,1,39.65,48.91Z"/><path class="cls-1" d="M63,44.44c.35,4.29.12,4.56-3.85,4.47-3.41-.09-6.07-1.57-7.42-4.73a8.19,8.19,0,0,1,1.18-9c2.27-2.62,5.34-3.35,8.72-2.75,2.28.39,1.56,2.21,1.47,3.5-.14,1.89-1.46.45-2.15.44-2,0-3.84.07-5,2a4.15,4.15,0,0,0,0,4.43c1.12,2,3,2.2,4.95,2C61.51,44.71,62.18,44.57,63,44.44Z"/><path class="cls-1" d="M66.71,12.54c0-3.29,0-6.59,0-9.88,0-1.49.46-2.68,2.11-2.66s2,1.28,2,2.57q0,10.14,0,20.29c0,1.3-.47,2.55-2,2.53s-2.08-1.22-2.07-2.7C66.73,19.3,66.71,15.92,66.71,12.54Z"/><path class="cls-1" d="M26.15,12.44c0,3.47,0,6.94,0,10.41,0,1.38-.44,2.54-1.95,2.54s-1.9-1.21-1.9-2.57q0-10.15,0-20.3c0-1.37.37-2.53,1.94-2.52s1.91,1.18,1.9,2.55C26.14,5.85,26.15,9.14,26.15,12.44Z"/><path class="cls-1" d="M30.29,40.89c0,2-.07,4,0,6,.07,1.43-.38,2-1.9,2s-2.29-.24-2.26-2c.09-4.15.08-8.3,0-12.45,0-1.63.8-1.8,2.1-1.81s2.15.17,2.06,1.8C30.2,36.56,30.29,38.72,30.29,40.89Z"/><path class="cls-1" d="M81.83,14.32c0,1.65,0,3.3,0,4.95a1.9,1.9,0,0,1-1.92,2,1.81,1.81,0,0,1-2.09-1.84c-.11-3.29-.11-6.59,0-9.88A1.85,1.85,0,0,1,79.87,7.7c1.4,0,2,.85,2,2.2S81.83,12.85,81.83,14.32Z"/><path class="cls-1" d="M15.13,14.73c0,1.47,0,2.94,0,4.41a1.93,1.93,0,0,1-2.06,2.15,1.86,1.86,0,0,1-2-2c-.08-3.2-.09-6.41,0-9.6a1.92,1.92,0,0,1,2.21-2,1.87,1.87,0,0,1,1.83,2.09C15.15,11.44,15.13,13.08,15.13,14.73Z"/><path class="cls-1" d="M33.37,14.33c0-1.47,0-2.94,0-4.41,0-1.3.53-2.19,2-2.22a2,2,0,0,1,2.1,2.14c.07,3.11.08,6.23,0,9.33,0,1.18-.65,2.22-2.11,2.12s-1.92-1-1.92-2.29C33.37,17.44,33.37,15.89,33.37,14.33Z"/><path class="cls-1" d="M59.5,14.63c0,1.47,0,2.94,0,4.4,0,1.25-.36,2.25-1.85,2.27s-2-.87-2-2.16c0-3.11,0-6.21,0-9.32,0-1.32.53-2.17,2-2.13s1.85,1,1.84,2.29C59.49,11.53,59.5,13.08,59.5,14.63Z"/><path class="cls-1" d="M48.48,17.43c-.16,1.39.65,3.75-1.94,3.79s-2.07-2.37-2.17-4.07c0-.43,0-.86,0-1.29,0-1.45.53-2.7,2.14-2.66s2.09,1.25,2,2.74C48.46,16.37,48.48,16.8,48.48,17.43Z"/><path class="cls-1" d="M0,17.17c.1-1.63-.56-4,2-3.93s2,2.27,2.07,4c0,.34,0,.69,0,1-.06,1.39-.06,3-2,3C.05,21.33,0,19.76,0,18.2,0,17.86,0,17.51,0,17.17Z"/><path class="cls-1" d="M92.84,17.36c0,.52,0,1,0,1.56,0,1.36-.36,2.44-2,2.38S89,20.22,89,19s0-2.25,0-3.37c0-1.43.57-2.49,2-2.44,1.29,0,1.88,1.05,1.81,2.37C92.82,16.15,92.84,16.75,92.84,17.36Z"/><path class="cls-1" d="M76.13,32.24a8.12,8.12,0,0,0-8.49,8.23,8,8,0,0,0,8.2,8.44c5.11.05,8.62-3.32,8.64-8.27A8.24,8.24,0,0,0,76.13,32.24ZM76,44.79a4,4,0,0,1-4.06-4.34A4,4,0,0,1,76,36.4a4.2,4.2,0,1,1,0,8.39Z"/></g></g></svg>