<svg xmlns="http://www.w3.org/2000/svg" viewBox="0 0 53 55.76"><defs><style>.cls-1{fill:none;stroke:#8892b0;stroke-miterlimit:10;stroke-width:3px;}</style></defs><title>github</title><g id="Layer_2" data-name="Layer 2"><g id="Main"><path class="cls-1" d="M19.27,55.76c0-.09,0-.94,0-2.56s0-3,0-4.21l-1.09.19a14.21,14.21,0,0,1-2.63.16A19.22,19.22,0,0,1,12.2,49,7.36,7.36,0,0,1,9,47.59a6,6,0,0,1-2.09-2.92l-.47-1.09A12.48,12.48,0,0,0,5,41.17a5.59,5.59,0,0,0-2.07-1.8l-.33-.24A3.62,3.62,0,0,1,2,38.56a2.37,2.37,0,0,1-.43-.67q-.15-.33.24-.54a3.1,3.1,0,0,1,1.37-.21l.95.14a6.83,6.83,0,0,1,2.34,1.14,7.54,7.54,0,0,1,2.3,2.46,8.41,8.41,0,0,0,2.63,3,5.61,5.61,0,0,0,3.11,1,14.09,14.09,0,0,0,2.7-.23,9.21,9.21,0,0,0,2.13-.72A7.7,7.7,0,0,1,21.64,39a32.3,32.3,0,0,1-4.86-.85,19.49,19.49,0,0,1-4.46-1.85,12.64,12.64,0,0,1-3.81-3.18,15.09,15.09,0,0,1-2.49-5,23.65,23.65,0,0,1-1-7.11A13.81,13.81,0,0,1,8.79,11.3Q7,7,9.12,1.63a6.69,6.69,0,0,1,4.08.64,28,28,0,0,1,4,1.83c.83.5,1.51.93,2,1.28a34,34,0,0,1,18.2,0l1.81-1.14a25.72,25.72,0,0,1,4.36-2.09,6.25,6.25,0,0,1,3.84-.52q2.13,5.36.37,9.67a13.82,13.82,0,0,1,3.75,9.77,24.16,24.16,0,0,1-1,7.13,14.87,14.87,0,0,1-2.51,5,13.24,13.24,0,0,1-3.84,3.15,19.67,19.67,0,0,1-4.46,1.85,32.53,32.53,0,0,1-4.86.85c1.65,1.42,2.47,3.67,2.47,6.73v10"/></g></g></svg>