<svg xmlns="http://www.w3.org/2000/svg" viewBox="0 0 50 50"><defs><style>.cls-1{fill:#8892b0;}</style></defs><title>instagram</title><g id="Layer_2" data-name="Layer 2"><g id="Main"><path class="cls-1" d="M25,4.5c6.68,0,7.47,0,10.1.15a13.83,13.83,0,0,1,4.64.86,7.93,7.93,0,0,1,2.88,1.87,7.8,7.8,0,0,1,1.87,2.88,13.83,13.83,0,0,1,.86,4.64c.12,2.63.15,3.42.15,10.1s0,7.47-.15,10.1a13.83,13.83,0,0,1-.86,4.64,8.26,8.26,0,0,1-4.75,4.75,13.83,13.83,0,0,1-4.64.86c-2.63.12-3.42.15-10.1.15s-7.47,0-10.1-.15a13.83,13.83,0,0,1-4.64-.86,7.8,7.8,0,0,1-2.88-1.87,7.8,7.8,0,0,1-1.87-2.88,13.83,13.83,0,0,1-.86-4.64C4.53,32.47,4.5,31.68,4.5,25s0-7.47.15-10.1a13.83,13.83,0,0,1,.86-4.64A7.8,7.8,0,0,1,7.38,7.38a7.93,7.93,0,0,1,2.88-1.87,13.83,13.83,0,0,1,4.64-.86c2.63-.12,3.42-.15,10.1-.15M25,0c-6.79,0-7.64,0-10.31.15A18.54,18.54,0,0,0,8.62,1.31,12.29,12.29,0,0,0,4.2,4.2,12.29,12.29,0,0,0,1.31,8.62,18.28,18.28,0,0,0,.15,14.69C0,17.36,0,18.21,0,25s0,7.64.15,10.31a18.28,18.28,0,0,0,1.16,6.07A12.29,12.29,0,0,0,4.2,45.8a12.29,12.29,0,0,0,4.42,2.89,18.28,18.28,0,0,0,6.07,1.16C17.36,50,18.21,50,25,50s7.64,0,10.31-.15a18.28,18.28,0,0,0,6.07-1.16,12.89,12.89,0,0,0,7.31-7.31,18.28,18.28,0,0,0,1.16-6.07C50,32.64,50,31.79,50,25s0-7.64-.15-10.31a18.28,18.28,0,0,0-1.16-6.07A12.29,12.29,0,0,0,45.8,4.2a12.29,12.29,0,0,0-4.42-2.89A18.54,18.54,0,0,0,35.31.15C32.64,0,31.79,0,25,0"/><path class="cls-1" d="M25,12.16A12.84,12.84,0,1,0,37.84,25,12.84,12.84,0,0,0,25,12.16m0,21.17A8.33,8.33,0,1,1,33.33,25,8.33,8.33,0,0,1,25,33.33"/><path class="cls-1" d="M41.35,11.65a3,3,0,1,1-3-3,3,3,0,0,1,3,3"/></g></g></svg>