<svg xmlns="http://www.w3.org/2000/svg" viewBox="0 0 49.35 66.75"><defs><style>.cls-1{fill:#8892b0;}</style></defs><title>java</title><g id="Layer_2" data-name="Layer 2"><g id="Main"><path class="cls-1" d="M31.51,0a2.63,2.63,0,0,1,.69.94,8.05,8.05,0,0,1,.6,6.3,15.18,15.18,0,0,1-3.15,5.57A32,32,0,0,1,25,17.25a24.36,24.36,0,0,0-3.36,3.14,11.64,11.64,0,0,0-1.35,1.92,6.8,6.8,0,0,0-.37,6.19,16.46,16.46,0,0,0,1.63,2.93c.62.91,1.25,1.81,1.86,2.72a14.48,14.48,0,0,1,1.18,2c-.06.09-.13.07-.19,0a50.33,50.33,0,0,1-6.05-6.25,14,14,0,0,1-1.89-3.12,5.89,5.89,0,0,1,.83-6.32,20.8,20.8,0,0,1,3.1-3.19c1.51-1.24,3.05-2.45,4.57-3.67a30.8,30.8,0,0,0,4-3.75A10.59,10.59,0,0,0,31.54.44C31.52.31,31.43.17,31.51,0Z"/><path class="cls-1" d="M10.46,56.75a17,17,0,0,0-3.2.62,10.72,10.72,0,0,0-2.29,1c-.33.2-.74.4-.72.84s.47.59.83.74A19,19,0,0,0,9.54,61a100.17,100.17,0,0,0,17.74.65c2.49-.09,5-.25,7.45-.5a48.86,48.86,0,0,0,8.07-1.32,7.05,7.05,0,0,0,2-.85,1.24,1.24,0,0,0,.61-1.72c1,.31,1.29,1.17.51,1.93a5.64,5.64,0,0,1-1.72,1.09,29.75,29.75,0,0,1-6.59,1.9,90.38,90.38,0,0,1-19,1.32A111.18,111.18,0,0,1,3.05,62a9.29,9.29,0,0,1-1.63-.42,4,4,0,0,1-.67-.29c-.89-.5-1-1.15-.29-1.89a5.35,5.35,0,0,1,1.42-1A17.26,17.26,0,0,1,6.4,56.75a11,11,0,0,1,3-.3A1.79,1.79,0,0,1,10.46,56.75Z"/><path class="cls-1" d="M39.13,13.74c-.11.24-.37.3-.57.42A52.63,52.63,0,0,0,32,18.66a14.56,14.56,0,0,0-2.21,2.23,6.23,6.23,0,0,0-1,1.78A4,4,0,0,0,29,25.53a11.88,11.88,0,0,0,1.28,2.21c.39.56.8,1.11,1.19,1.67a4.58,4.58,0,0,1,.1,5.41A11,11,0,0,1,27.4,38.5l.3-.42a10.85,10.85,0,0,0,.66-1,4.18,4.18,0,0,0-.29-5c-.34-.45-.71-.87-1.05-1.32a11.52,11.52,0,0,1-1.67-2.91,6.81,6.81,0,0,1,.78-6.61,13.66,13.66,0,0,1,4.12-3.78,34.87,34.87,0,0,1,8.53-3.79A.39.39,0,0,1,39.13,13.74Z"/><path class="cls-1" d="M15.45,51.79c-.41.84-.31,1.11.51,1.41a11.31,11.31,0,0,0,2.51.45,37.54,37.54,0,0,0,12-.48c.26-.05.53-.08.79-.14a.73.73,0,0,1,.56.08A30.57,30.57,0,0,0,35,54.67c.05,0,.08.06.11.09a1.15,1.15,0,0,1-.63.34,31.11,31.11,0,0,1-14.08,1.84,19.76,19.76,0,0,1-5.27-1.13,5.93,5.93,0,0,1-1.79-1,1.22,1.22,0,0,1,.07-2.17A5,5,0,0,1,15.45,51.79Z"/><path class="cls-1" d="M38.51,39.2A11.56,11.56,0,0,1,33,41.36a83.32,83.32,0,0,1-17.28,1.1,51.45,51.45,0,0,1-6.91-.64,10.76,10.76,0,0,1-2.61-.72c-.37-.18-.82-.35-.84-.83s.4-.71.76-.9a24.17,24.17,0,0,1,6.18-2.23,18.38,18.38,0,0,1,3.54-.48c.18,0,.38-.07.57.1a6,6,0,0,1-1.19.37,30.46,30.46,0,0,0-3.18,1.07,10.07,10.07,0,0,0-1.19.58c-.3.18-.71.36-.67.79s.47.51.81.63a4.5,4.5,0,0,0,.63.17,22.45,22.45,0,0,0,4,.43,115.06,115.06,0,0,0,15.64-.63c2.28-.24,4.55-.55,6.81-1Z"/><path class="cls-1" d="M14.07,44.34a8.32,8.32,0,0,0-.51.69.82.82,0,0,0,.34,1.29,4.31,4.31,0,0,0,1.68.47,54.67,54.67,0,0,0,10.15.28,59.38,59.38,0,0,0,7-1,1.61,1.61,0,0,1,1.59.37,6.28,6.28,0,0,0,1.9,1.09.67.67,0,0,1-.47.25,52,52,0,0,1-17,1.72,22.75,22.75,0,0,1-5.61-1,7.44,7.44,0,0,1-1.48-.64c-1.26-.75-1.28-1.63-.06-2.47a6.68,6.68,0,0,1,.82-.47A9,9,0,0,1,14.07,44.34Z"/><path class="cls-1" d="M49.26,60.66a2.27,2.27,0,0,1-.69,1.5,6.27,6.27,0,0,1-2,1.45A22.09,22.09,0,0,1,41,65.4a67.23,67.23,0,0,1-9.8,1.18c-3.17.18-6.34.21-9.51.11a57.3,57.3,0,0,1-10-1,10.7,10.7,0,0,1-2.44-.76.5.5,0,0,1,.45-.08,73.9,73.9,0,0,0,7.42.71,104.1,104.1,0,0,0,11.85,0,71.84,71.84,0,0,0,14.51-2.17q1.06-.3,2.1-.66A10.91,10.91,0,0,0,49.26,60.66Z"/><path class="cls-1" d="M38.91,49c.16-.3.46-.37.7-.5A20.66,20.66,0,0,0,44.51,45a8.13,8.13,0,0,0,1.61-2.25,3.81,3.81,0,0,0-.35-4.27,4.15,4.15,0,0,0-4.32-1.49l-1,.22a.86.86,0,0,1,.56-.57,6.43,6.43,0,0,1,6.86.88,4.43,4.43,0,0,1,1.05,5.22,7.7,7.7,0,0,1-2.16,2.74A16.37,16.37,0,0,1,42.34,48a26.42,26.42,0,0,1-2.76,1A1.06,1.06,0,0,1,38.91,49Z"/></g></g></svg>