<svg xmlns="http://www.w3.org/2000/svg" viewBox="0 0 46.11 48.08"><defs><style>.cls-1{fill:#8892b0;}</style></defs><title>kotlin</title><g id="Layer_2" data-name="Layer 2"><g id="Main"><path class="cls-1" d="M40.66,47.92a11,11,0,0,1-2.36.15c-.36,0-.71-.13-1.07-.15a3,3,0,0,1-1.3-.4,5.57,5.57,0,0,1-.83-.45,24.46,24.46,0,0,1-2.32-2c-1.22-1.1-2.42-2.21-3.65-3.29l-.52-.51a1,1,0,0,0-.19-.16c-.35-.27-.62-.62-1-.88L27.19,40c-.24-.27-.56-.46-.81-.73-1.18-1.05-2.35-2.12-3.53-3.19-.9-.81-1.8-1.62-2.69-2.45s-1.68-1.49-2.5-2.28l-.11-.1-.09-.06c-.41-.34-.4-.43.06-.69s.8-.41,1.17-.65c.73-.38,1.45-.79,2.17-1.19s1.48-.8,2.21-1.23c1.13-.58,2.22-1.22,3.33-1.82.72-.38,1.41-.79,2.13-1.16.51-.29,1-.56,1.52-.86a.43.43,0,0,1,.56,0c.76.68,1.53,1.35,2.27,2a1.45,1.45,0,0,0,.18.17c.36.26.63.61,1,.87l.25.24q.42.34.81.72c.9.78,1.76,1.59,2.65,2.38,1.12,1,2.22,2,3.33,3,.91.83,1.85,1.64,2.74,2.49a2.41,2.41,0,0,1,.24.21,8.45,8.45,0,0,1,1.41,2.14A7.41,7.41,0,0,1,42.84,47a7,7,0,0,1-1.65.8A.88.88,0,0,1,40.66,47.92Z"/><path class="cls-1" d="M10,47.78a9.11,9.11,0,0,1-2.5.3,7.32,7.32,0,0,1-3.78-1.15l-.27-.17a1.32,1.32,0,0,1-.66-.42c-.27-.25-.52-.52-.79-.78a8.29,8.29,0,0,1-.81-1.13,6.65,6.65,0,0,1-.55-1.1,7.9,7.9,0,0,1-.55-2.24c0-.05,0-.1,0-.15A.94.94,0,0,1,.61,39.8c.59-.27,1.14-.6,1.7-.92.75-.39,1.49-.81,2.24-1.22s1.44-.8,2.16-1.19l2.21-1.22,2.16-1.19c.34-.2.7-.37,1.05-.57.76-.44,1.54-.83,2.28-1.28a3.64,3.64,0,0,1,.54-.3c.29-.14.41-.07.43.25a7.38,7.38,0,0,1,0,.94c0,2.45,0,4.9,0,7.35a7.65,7.65,0,0,1-.57,2.87,8.71,8.71,0,0,1-1.08,1.9,1,1,0,0,1-.36.3,11.25,11.25,0,0,1-1.3,1.18,1.28,1.28,0,0,1-.61.49A3.94,3.94,0,0,1,10,47.78Z"/><path class="cls-1" d="M6.69,0A10,10,0,0,1,10,.3a3.84,3.84,0,0,1,1.46.57,7.42,7.42,0,0,1,.7.44,8.34,8.34,0,0,1,2.3,2.61,6.8,6.8,0,0,1,.5,1.14,8,8,0,0,1,.32,1.09,9.72,9.72,0,0,1,.15,2.35.55.55,0,0,1-.33.49c-.58.33-1.17.64-1.74,1-1.15.59-2.25,1.24-3.38,1.86L7.73,13.05l-2.1,1.19c-1.08.58-2.16,1.19-3.23,1.8-.63.31-1.24.69-1.86,1-.13.06-.24.17-.4.11A.2.2,0,0,1,0,17a6.14,6.14,0,0,1,0-1q0-.54,0-1.08c0-.36,0-.73,0-1.09s0-.73,0-1.1S0,12,0,11.61s0-.73,0-1.09,0-.73,0-1.1S0,8.7,0,8.34s0-.71,0-1.06A7.3,7.3,0,0,1,.45,5.07,7.68,7.68,0,0,1,.93,4,7.8,7.8,0,0,1,4.5.59,9.53,9.53,0,0,1,5.8.13,2.23,2.23,0,0,1,6.69,0Z"/><path class="cls-1" d="M37.24.16A10.37,10.37,0,0,1,39.6,0c.34,0,.65.16,1,.14a2.92,2.92,0,0,1,1.12.3A7.42,7.42,0,0,1,41.7,14c-.72.4-1.43.82-2.16,1.19s-1.47.81-2.2,1.23c-1.12.59-2.22,1.23-3.34,1.83l-2.21,1.22c-.73.39-1.44.81-2.17,1.19l-2.21,1.22c-1.09.61-2.19,1.2-3.28,1.82-.71.37-1.42.76-2.12,1.17s-1.44.78-2.16,1.19-1.48.8-2.21,1.21-1.45.8-2.17,1.2c-1.1.58-2.18,1.21-3.28,1.8-.75.42-1.51.82-2.25,1.25s-1.42.76-2.12,1.17-1.51.82-2.26,1.24-1.41.77-2.12,1.17c-.91.48-1.81,1-2.71,1.49-.18.1-.36.26-.6.21a.39.39,0,0,1-.08-.1,5.15,5.15,0,0,1,0-1q0-.54,0-1.08c0-.36,0-.73,0-1.09s0-.73,0-1.09,0-.73,0-1.1,0-.73,0-1.09,0-.73,0-1.1S0,28.38,0,28s0-.73,0-1.09,0-.73,0-1.1,0-.73,0-1.09S0,24,0,23.65s0-.73,0-1.09,0-.7,0-1c0-1.2,0-1,.87-1.49l.32-.17c1.1-.59,2.18-1.21,3.27-1.81.76-.41,1.5-.84,2.24-1.26S8.19,16,8.92,15.56l3.19-1.78c.74-.39,1.46-.82,2.21-1.21s1.46-.81,2.19-1.24,1.5-.84,2.26-1.24S20.23,9.27,21,8.85c1.08-.56,2.13-1.18,3.19-1.76.74-.4,1.48-.81,2.21-1.23s1.5-.84,2.26-1.24l3.18-1.78C32.52,2.43,33.26,2,34,1.61S35.43.77,36.2.44A2.52,2.52,0,0,1,37.24.16Z"/></g></g></svg>