<svg xmlns="http://www.w3.org/2000/svg" viewBox="0 0 59.7 59.72"><defs><style>.cls-1{fill:#8892b0;}</style></defs><title>python</title><g id="Layer_2" data-name="Layer 2"><g id="Main"><path class="cls-1" d="M59.69,23.85a8.72,8.72,0,0,0-.31-2.15,9,9,0,0,0-8-6.51c-1.42-.11-2.85,0-4.28,0-.22,0-.29,0-.29.29,0,2.17,0,4.35,0,6.53a8.51,8.51,0,0,1-.35,2.46A9,9,0,0,1,38,30.82c-2.38,0-4.76,0-7.13,0v-.07c-2.28,0-4.56,0-6.83,0a8.72,8.72,0,0,0-4,.88,8.59,8.59,0,0,0-5.12,8c-.06,3.75,0,7.51,0,11.26A7.72,7.72,0,0,0,15.53,54a8.75,8.75,0,0,0,8.23,5.67c3.8.12,7.61,0,11.41,0a9,9,0,0,0,9-8.92c0-1.11,0-2.23,0-3.34,0-.25.11-.58,0-.73s-.49-.05-.75-.05H29.62c-.23,0-.29-.06-.29-.29q0-1,0-2c0-.21.05-.28.28-.28,5,0,10,0,15,0,2,0,4,0,6,0A9.72,9.72,0,0,0,54,43.46a8.74,8.74,0,0,0,5.68-8C59.72,31.61,59.69,27.73,59.69,23.85ZM37.89,49.64a2.75,2.75,0,1,1-2.83,2.73A2.77,2.77,0,0,1,37.89,49.64Z"/><path class="cls-1" d="M44.78,8.77a7.84,7.84,0,0,0-.72-3.34A8.73,8.73,0,0,0,36,.06C32.17,0,28.36,0,24.54,0a9,9,0,0,0-3,.53,8.83,8.83,0,0,0-6,8.39c0,1.24,0,2.49,0,3.74,0,.38,0,.38.39.38H30.11c.21,0,.28,0,.27.26,0,.64,0,1.28,0,1.93,0,.35,0,.35-.35.35H22.09l-13,0a8.52,8.52,0,0,0-3.7.76C2.1,18,.16,20.52.06,24.23,0,28.12,0,32,0,35.92A7.76,7.76,0,0,0,.33,38a9,9,0,0,0,8,6.52c1.43.11,2.87,0,4.3,0,.24,0,.27-.08.27-.29V37.77a8.57,8.57,0,0,1,.34-2.47,9,9,0,0,1,8.46-6.4c2.39,0,4.77,0,7.16,0V29h6.81a8.67,8.67,0,0,0,4-.88,8.55,8.55,0,0,0,5.12-7.86C44.85,16.41,44.79,12.59,44.78,8.77Zm-23,1.31a2.75,2.75,0,1,1,2.85-2.72A2.77,2.77,0,0,1,21.81,10.08Z"/></g></g></svg>